# xmcd
#
# Track frame offsets:
#       150
#       26795
#       44929
#       63917
#       84418
#       104417
#       122279
#       142014
#       159537
#       183464
#       202297
#       222874
#       239921
#       259942
#       271916
#
# Disc length: 3922 seconds
#
# Revision: 0
# Processed by: cddbd v1.5.2PL0 Copyright (c) Steve Scherf et al.
# Submitted via: WaveLab 4.01
#
DISCID=ec0f500f
DTITLE=Septeto Guaimaré - Sucusuquaindo
DYEAR=1900
DGENRE=
TTITLE0=Guantanamera
TTITLE1=Chan Chan
TTITLE2=Bésame Mucho
TTITLE3=Son De La Loma
TTITLE4=Negra Tomasa
TTITLE5=El Cafetal
TTITLE6=Pintate Los Labios
TTITLE7=Sucusuquaindo
TTITLE8=El Cuarto De Tula
TTITLE9=Hasta Siempre
TTITLE10=Chica Ipanema
TTITLE11=El Carretero
TTITLE12=Yolanda
TTITLE13=Quizas Quizas
TTITLE14=La Paloma
EXTD=
EXTT0=
EXTT1=
EXTT2=
EXTT3=
EXTT4=
EXTT5=
EXTT6=
EXTT7=
EXTT8=
EXTT9=
EXTT10=
EXTT11=
EXTT12=
EXTT13=
EXTT14=
PLAYORDER=
